 <svg  version="1.0" xmlns="http://www.w3.org/2000/svg"  width="300.000000pt" height="225.000000pt" viewBox="0 0 300.000000 225.000000"  preserveAspectRatio="xMidYMid meet">  <g transform="translate(0.000000,225.000000) scale(0.100000,-0.100000)" fill="#ffffff" stroke="none"> <path d="M1147 1752 c-26 -29 -36 -67 -38 -152 -1 -55 -6 -86 -16 -96 -8 -8 -11 -14 -6 -14 4 0 3 -4 -3 -8 -16 -9 -59 -89 -79 -143 -10 -26 -19 -90 -22 -155 -5 -97 -3 -119 16 -168 12 -32 18 -63 15 -69 -4 -7 -4 -9 1 -5 13 12 67 -81 60 -103 -5 -14 7 -33 48 -72 30 -29 68 -59 84 -67 15 -8 40 -23 56 -33 15 -10 27 -15 27 -11 0 3 6 2 13 -4 6 -6 45 -27 85 -48 41 -20 89 -52 107 -71 24 -25 42 -34 67 -35 18 0 38 -4 44 -9 15 -12 66 -6 82 8 14 13 20 46 25 126 3 43 9 53 70 118 61 63 137 166 137 186 1 24 17 32 48 23 30 -8 34 -6 44 16 10 20 9 27 -3 34 -11 8 -12 13 -2 29 16 26 7 50 -22 57 -25 6 -26 22 -9 114 9 49 5 138 -9 185 -12 42 -92 130 -132 145 -20 8 -23 18 -30 105 -6 79 -11 100 -28 116 -11 10 -27 19 -35 19 -17 0 -66 -33 -112 -78 -32 -30 -39 -32 -80 -26 -51 7 -168 6 -181 -1 -4 -3 -11 -1 -14 5 -15 24 -151 100 -180 100 -6 0 -19 -8 -28 -18z m631 -127 c4 -94 5 -95 36 -113 53 -31 108 -85 122 -119 15 -34 18 -141 8 -241 -6 -50 -10 -61 -27 -66 -12 -3 -22 -4 -23 -3 0 1 4 58 9 127 9 111 8 129 -7 162 -21 44 -58 61 -129 59 -159 -3 -320 -119 -404 -287 -31 -64 -37 -86 -37 -142 -1 -94 25 -143 133 -256 96 -102 115 -130 126 -190 9 -48 -13 -47 -29 2 -12 33 -42 69 -51 60 -3 -3 6 -25 20 -49 35 -62 31 -65 -17 -16 -27 27 -92 68 -176 111 -84 43 -154 87 -188 119 -30 27 -53 52 -50 54 2 2 23 -5 46 -17 61 -31 67 -20 13 20 -96 71 -147 184 -147 325 0 101 30 201 83 281 36 55 39 66 44 149 6 101 19 145 42 145 21 0 91 -36 135 -68 32 -24 43 -27 135 -28 55 -1 112 -6 126 -12 23 -9 30 -7 50 15 13 14 46 43 73 65 67 54 79 42 84 -87z m84 -249 c17 -19 18 -34 14 -136 -3 -63 -5 -116 -6 -118 0 -2 -12 6 -26 17 -15 12 -32 21 -38 21 -7 0 -29 20 -49 45 -53 63 -79 61 -148 -8 -48 -48 -60 -54 -107 -60 -63 -7 -122 -47 -122 -83 0 -12 -4 -26 -10 -29 -6 -4 -10 7 -10 27 1 40 61 151 113 208 113 122 328 187 389 116z m-115 -198 c19 -28 39 -44 61 -50 25 -7 32 -14 32 -32 0 -16 -8 -26 -22 -31 l-23 -8 23 -4 c27 -5 29 -23 2 -30 -23 -6 -26 -19 -7 -26 19 -7 -63 -98 -113 -124 -29 -16 -60 -23 -96 -23 -51 0 -134 24 -134 39 0 14 46 50 99 79 29 16 48 33 42 36 -15 10 -82 -27 -127 -69 l-39 -37 -22 29 c-13 15 -23 31 -23 35 0 3 32 14 70 24 39 10 70 22 70 26 0 13 -42 8 -97 -11 -50 -17 -53 -17 -53 -1 0 26 23 32 130 36 52 2 95 7 95 11 0 12 -122 15 -171 5 -50 -11 -54 -5 -21 26 15 14 47 26 88 33 58 11 68 16 109 60 58 64 87 66 127 7z m241 -118 c6 0 12 -5 12 -10 0 -6 -26 -10 -60 -9 -33 1 -60 5 -60 10 0 9 47 18 75 13 11 -2 26 -4 33 -4z m-31 -56 c24 -9 43 -21 43 -26 0 -5 -6 -8 -12 -6 -7 2 -34 10 -60 18 -48 14 -64 30 -31 30 10 0 37 -7 60 -16z m-587 -36 c0 -17 36 -58 100 -113 20 -17 86 -35 131 -35 51 0 119 26 158 60 18 17 36 30 39 30 8 0 -20 -32 -99 -115 -42 -44 -84 -95 -93 -112 -15 -31 -36 -44 -36 -24 0 4 -26 35 -57 68 -97 99 -124 132 -140 171 -18 43 -26 105 -12 97 5 -4 9 -15 9 -27z m540 0 c0 -28 -73 -132 -145 -207 -70 -72 -80 -88 -80 -120 -1 -96 -6 -131 -16 -131 -8 0 -10 19 -5 66 5 52 4 65 -6 62 -9 -3 -14 -28 -16 -72 -4 -80 -25 -87 -30 -10 -6 84 11 118 111 223 51 53 105 121 121 152 23 43 34 55 48 51 10 -2 18 -9 18 -14z"/> <path d="M1677 1074 c-7 -7 33 -64 45 -64 7 0 38 52 38 65 0 7 -75 6 -83 -1z"/> </g> </svg> 